<?xml version="1.0" encoding="utf-8"?>
<!-- Svg Vector Icons : http://www.onlinewebfonts.com/icon -->
<!DOCTYPE svg PUBLIC "-//W3C//DTD SVG 1.1//EN" "http://www.w3.org/Graphics/SVG/1.1/DTD/svg11.dtd">
<svg version="1.1" xmlns="http://www.w3.org/2000/svg" xmlns:xlink="http://www.w3.org/1999/xlink" x="0px" y="0px" viewBox="0 0 1000 1000" enable-background="new 0 0 1000 1000" xml:space="preserve">
<metadata> Svg Vector Icons : http://www.onlinewebfonts.com/icon </metadata>
<g><path d="M985.3,468.8c-3.8,4.5-9.2,6.7-14.6,6.7c-4.5,0-9-1.6-12.6-4.7L534.8,104.5c-19.7-19.7-50-19.6-68.6-1L42,470.8c-8.1,7-20.3,6.1-27.3-2c-7-8.1-6.1-20.4,2-27.4L439.9,75.1c32.7-32.9,87.6-32.8,121.2,1L722,214.3v-95c0-21.3,17.3-38.6,38.6-38.6h77.2c21.3,0,38.6,17.3,38.6,38.6V348l106.8,93.4C991.4,448.4,992.3,460.7,985.3,468.8z M837.9,119.3h-77.2v128.4l77.2,66.6V119.3z M123.6,456.4c0-10.7,8.7-19.4,19.3-19.4c10.7,0,19.3,8.7,19.3,19.4l-0.1,425.8c-0.1,10.4-0.2,23.5,1.5,26.6c-0.1-0.2,3.1,1.9,17.9,1.9h174V673.9c0-45.1,36.5-81.7,81.5-81.7H563c44.9,0,81.5,36.6,81.5,81.7v236.7h174.1c14.8,0,18.1-2.2,18.2-2.3c1.4-2.6,1.3-15.7,1.2-26.1l-0.1-10.4l0.1-415.7c0-10.7,8.7-19.4,19.3-19.4c10.7,0,19.3,8.7,19.3,19.4l-0.1,415.7l0.1,10.1c0.2,22.9,0.3,40.9-12.5,53.9c-11.9,12-29.7,13.6-45.5,13.6H181.6c-15.9,0-33.7-1.6-45.5-13.6c-12.9-13-12.7-31.1-12.5-53.9l0.1-10.1V456.4z M394.3,910.6h211.4V673.9c0-23.7-19.2-42.9-42.8-42.9H437.1c-23.6,0-42.8,19.3-42.8,42.9V910.6z"/></g>
</svg>